<svg width="210" height="210" viewBox="0 0 210 210" fill="none" xmlns="http://www.w3.org/2000/svg">
<circle cx="105" cy="105" r="105" fill="#0E336E"/>
<circle cx="105" cy="105" r="100" fill="#5293FA"/>
<circle cx="105" cy="105" r="75" fill="#EDF4FF"/>
<g clip-path="url(#clip0_8_23)">
<path fill-rule="evenodd" clip-rule="evenodd" d="M137.05 61.435C137.432 61.9695 137.704 62.5739 137.852 63.2136C138 63.8534 138.02 64.5161 137.912 65.1638C137.804 65.8115 137.569 66.4316 137.221 66.9886C136.874 67.5455 136.42 68.0285 135.885 68.41L125.38 75.915C123.764 77.0675 122.536 78.6823 121.855 80.5467C121.175 82.4112 121.076 84.4379 121.57 86.36L138.285 69.645C138.746 69.1675 139.298 68.7865 139.908 68.5245C140.518 68.2625 141.174 68.1245 141.838 68.1188C142.502 68.113 143.16 68.2395 143.775 68.4909C144.389 68.7423 144.948 69.1136 145.417 69.583C145.886 70.0525 146.258 70.6108 146.509 71.2252C146.761 71.8397 146.887 72.4981 146.881 73.162C146.875 73.8259 146.738 74.482 146.476 75.092C146.213 75.702 145.833 76.2538 145.355 76.715L128.64 93.43C130.562 93.9242 132.589 93.8247 134.453 93.1446C136.318 92.4645 137.932 91.2357 139.085 89.62L146.59 79.115C147.375 78.0737 148.535 77.3802 149.824 77.1822C151.113 76.9843 152.428 77.2976 153.489 78.0554C154.55 78.8133 155.273 79.9556 155.504 81.2389C155.735 82.5222 155.455 83.8449 154.725 84.925L147.225 95.435C144.346 99.4637 140.065 102.27 135.223 103.303C130.38 104.335 125.326 103.519 121.055 101.015L112.375 109.695L136.39 133.715C137.301 134.658 137.805 135.921 137.793 137.232C137.782 138.543 137.256 139.797 136.329 140.724C135.402 141.651 134.148 142.177 132.837 142.188C131.526 142.2 130.263 141.696 129.32 140.785L105.305 116.77L81.715 140.355C81.2537 140.833 80.702 141.213 80.092 141.476C79.482 141.738 78.8259 141.875 78.162 141.881C77.4981 141.887 76.8397 141.761 76.2252 141.509C75.6107 141.258 75.0525 140.886 74.583 140.417C74.1135 139.948 73.7423 139.389 73.4909 138.775C73.2395 138.16 73.113 137.502 73.1187 136.838C73.1245 136.174 73.2624 135.518 73.5245 134.908C73.7865 134.298 74.1674 133.746 74.645 133.285L98.23 109.695L90.43 101.895L83.36 108.965C82.4223 109.902 81.1508 110.429 79.825 110.429C78.4992 110.429 77.2276 109.902 76.29 108.965L65.265 97.945C61.5548 94.2343 59.1063 89.4502 58.2664 84.2705C57.4264 79.0907 58.2376 73.778 60.585 69.085C61.525 67.205 62.6 65.51 64.88 65.135C65.6618 65.0084 66.4625 65.0692 67.2162 65.3126C67.9699 65.556 68.6549 65.975 69.215 66.535L93.95 91.27L93.97 91.29L105.31 102.63L113.99 93.95C111.487 89.679 110.672 84.6265 111.705 79.7851C112.737 74.9437 115.543 70.6634 119.57 67.785L130.08 60.28C131.159 59.5089 132.5 59.198 133.808 59.4155C135.116 59.6331 136.284 60.3613 137.055 61.44L137.05 61.435Z" fill="#5293FA"/>
</g>
<defs>
<clipPath id="clip0_8_23">
<rect width="120" height="120" fill="white" transform="translate(45 45)"/>
</clipPath>
</defs>
</svg>
